<svg id="mermaid-1791371594810" width="100%" xmlns="http://www.w3.org/2000/svg" style="max-width: 100%; height: auto;" viewBox="-8 -8 1240 877" role="graphics-document document" aria-roledescription="flowchart-v2"><style>#mermaid-1791371594810{font-family:monospace;font-size:16px;fill:#333;}#mermaid-1791371594810 .error-icon{fill:#552222;}#mermaid-1791371594810 .error-text{fill:#552222;stroke:#552222;}#mermaid-1791371594810 .edge-thickness-normal{stroke-width:2px;}#mermaid-1791371594810 .edge-thickness-thick{stroke-width:3.5px;}#mermaid-1791371594810 .edge-pattern-solid{stroke-dasharray:0;}#mermaid-1791371594810 .edge-pattern-dashed{stroke-dasharray:3;}#mermaid-1791371594810 .edge-pattern-dotted{stroke-dasharray:2;}#mermaid-1791371594810 .marker{fill:#333333;stroke:#333333;}#mermaid-1791371594810 .marker.cross{stroke:#333333;}#mermaid-1791371594810 svg{font-family:monospace;font-size:16px;}#mermaid-1791371594810 .label{font-family:monospace;color:#333;}#mermaid-1791371594810 .cluster-label text{fill:#333;}#mermaid-1791371594810 .cluster-label span,#mermaid-1791371594810 p{color:#333;}#mermaid-1791371594810 .label text,#mermaid-1791371594810 span,#mermaid-1791371594810 p{fill:#333;color:#333;}#mermaid-1791371594810 .node rect,#mermaid-1791371594810 .node circle,#mermaid-1791371594810 .node ellipse,#mermaid-1791371594810 .node polygon,#mermaid-1791371594810 .node path{fill:#ECECFF;stroke:#9370DB;stroke-width:1px;}#mermaid-1791371594810 .flowchart-label text{text-anchor:middle;}#mermaid-1791371594810 .node .katex path{fill:#000;stroke:#000;stroke-width:1px;}#mermaid-1791371594810 .node .label{text-align:center;}#mermaid-1791371594810 .node.clickable{cursor:pointer;}#mermaid-1791371594810 .arrowheadPath{fill:#333333;}#mermaid-1791371594810 .edgePath .path{stroke:#333333;stroke-width:2.0px;}#mermaid-1791371594810 .flowchart-link{stroke:#333333;fill:none;}#mermaid-1791371594810 .edgeLabel{background-color:#e8e8e8;text-align:center;}#mermaid-1791371594810 .edgeLabel rect{opacity:0.5;background-color:#e8e8e8;fill:#e8e8e8;}#mermaid-1791371594810 .labelBkg{background-color:rgba(232, 232, 232, 0.5);}#mermaid-1791371594810 .cluster rect{fill:#ffffde;stroke:#aaaa33;stroke-width:1px;}#mermaid-1791371594810 .cluster text{fill:#333;}#mermaid-1791371594810 .cluster span,#mermaid-1791371594810 p{color:#333;}#mermaid-1791371594810 div.mermaidTooltip{position:absolute;text-align:center;max-width:200px;padding:2px;font-family:monospace;font-size:12px;background:hsl(80, 100%, 96.2745098039%);border:1px solid #aaaa33;border-radius:2px;pointer-events:none;z-index:100;}#mermaid-1791371594810 .flowchartTitleText{text-anchor:middle;font-size:18px;fill:#333;}#mermaid-1791371594810 :root{--mermaid-font-family:monospace;}</style><g><marker id="mermaid-1791371594810_flowchart-pointEnd" class="marker flowchart" viewBox="0 0 10 10" refX="6" refY="5" markerUnits="userSpaceOnUse" markerWidth="12" markerHeight="12" orient="auto"><path d="M 0 0 L 10 5 L 0 10 z" class="arrowMarkerPath" style="stroke-width: 1; stroke-dasharray: 1, 0;"></path></marker><marker id="mermaid-1791371594810_flowchart-pointStart" class="marker flowchart" viewBox="0 0 10 10" refX="4.5" refY="5" markerUnits="userSpaceOnUse" markerWidth="12" markerHeight="12" orient="auto"><path d="M 0 5 L 10 10 L 10 0 z" class="arrowMarkerPath" style="stroke-width: 1; stroke-dasharray: 1, 0;"></path></marker><marker id="mermaid-1791371594810_flowchart-circleEnd" class="marker flowchart" viewBox="0 0 10 10" refX="11" refY="5" markerUnits="userSpaceOnUse" markerWidth="11" markerHeight="11" orient="auto"><circle cx="5" cy="5" r="5" class="arrowMarkerPath" style="stroke-width: 1; stroke-dasharray: 1, 0;"></circle></marker><marker id="mermaid-1791371594810_flowchart-circleStart" class="marker flowchart" viewBox="0 0 10 10" refX="-1" refY="5" markerUnits="userSpaceOnUse" markerWidth="11" markerHeight="11" orient="auto"><circle cx="5" cy="5" r="5" class="arrowMarkerPath" style="stroke-width: 1; stroke-dasharray: 1, 0;"></circle></marker><marker id="mermaid-1791371594810_flowchart-crossEnd" class="marker cross flowchart" viewBox="0 0 11 11" refX="12" refY="5.2" markerUnits="userSpaceOnUse" markerWidth="11" markerHeight="11" orient="auto"><path d="M 1,1 l 9,9 M 10,1 l -9,9" class="arrowMarkerPath" style="stroke-width: 2; stroke-dasharray: 1, 0;"></path></marker><marker id="mermaid-1791371594810_flowchart-crossStart" class="marker cross flowchart" viewBox="0 0 11 11" refX="-1" refY="5.2" markerUnits="userSpaceOnUse" markerWidth="11" markerHeight="11" orient="auto"><path d="M 1,1 l 9,9 M 10,1 l -9,9" class="arrowMarkerPath" style="stroke-width: 2; stroke-dasharray: 1, 0;"></path></marker><g class="root"><g class="clusters"><g class="cluster default flowchart-label" id="UI_Output"><rect style="" rx="0" ry="0" x="0" y="785" width="1224" height="76"></rect><g class="cluster-label" transform="translate(612, 785)"><text style=""><tspan xml:space="preserve" dy="1em" x="0" class="row">출력 영역</tspan></text></g></g><g class="cluster default flowchart-label" id="Backend"><rect style="" rx="0" ry="0" x="22" y="203" width="1036" height="532"></rect><g class="cluster-label" transform="translate(540, 203)"><text style=""><tspan xml:space="preserve" dy="1em" x="0" class="row">백엔드 처리 영역 (analyze_sports_posture)</tspan></text></g></g><g class="cluster default flowchart-label" id="UI_Input"><rect style="" rx="0" ry="0" x="380" y="0" width="488" height="153"></rect><g class="cluster-label" transform="translate(624, 0)"><text style=""><tspan xml:space="preserve" dy="1em" x="0" class="row">입력 영역</tspan></text></g></g></g><g class="edgePaths"><path d="M624,51L624,55.167C624,59.333,624,67.667,624,75.117C624,82.567,624,89.133,624,92.417L624,95.7" id="L-A-B-0" class="edge-thickness-normal edge-pattern-solid flowchart-link LS-A LE-B" style="fill:none;" marker-end="url(#mermaid-1791371594810_flowchart-pointEnd)"></path><path d="M624,128L624,132.167C624,136.333,624,144.667,624,153C624,161.333,624,169.667,624,178C624,186.333,624,194.667,624,202.117C624,209.567,624,216.133,624,219.417L624,222.7" id="L-B-C-0" class="edge-thickness-normal edge-pattern-solid flowchart-link LS-B LE-C" style="fill:none;" marker-end="url(#mermaid-1791371594810_flowchart-pointEnd)"></path><path d="M624,254L624,258.167C624,262.333,624,270.667,624,278.117C624,285.567,624,292.133,624,295.417L624,298.7" id="L-C-D-0" class="edge-thickness-normal edge-pattern-solid flowchart-link LS-C LE-D" style="fill:none;" marker-end="url(#mermaid-1791371594810_flowchart-pointEnd)"></path><path d="M624,330L624,334.167C624,338.333,624,346.667,624,354.117C624,361.567,624,368.133,624,371.417L624,374.7" id="L-D-E-0" class="edge-thickness-normal edge-pattern-solid flowchart-link LS-D LE-E" style="fill:none;" marker-end="url(#mermaid-1791371594810_flowchart-pointEnd)"></path><path d="M624,406L624,410.167C624,414.333,624,422.667,624,430.117C624,437.567,624,444.133,624,447.417L624,450.7" id="L-E-F-0" class="edge-thickness-normal edge-pattern-solid flowchart-link LS-E LE-F" style="fill:none;" marker-end="url(#mermaid-1791371594810_flowchart-pointEnd)"></path><path d="M624,482L624,486.167C624,490.333,624,498.667,624,506.117C624,513.567,624,520.133,624,523.417L624,526.7" id="L-F-G-0" class="edge-thickness-normal edge-pattern-solid flowchart-link LS-F LE-G" style="fill:none;" marker-end="url(#mermaid-1791371594810_flowchart-pointEnd)"></path><path d="M624,558L624,562.167C624,566.333,624,574.667,624,582.117C624,589.567,624,596.133,624,599.417L624,602.7" id="L-G-H-0" class="edge-thickness-normal edge-pattern-solid flowchart-link LS-G LE-H" style="fill:none;" marker-end="url(#mermaid-1791371594810_flowchart-pointEnd)"></path><path d="M485.789,634L441.491,638.167C397.193,642.333,308.596,650.667,264.298,658.117C220,665.567,220,672.133,220,675.417L220,678.7" id="L-H-I-0" class="edge-thickness-normal edge-pattern-solid flowchart-link LS-H LE-I" style="fill:none;" marker-end="url(#mermaid-1791371594810_flowchart-pointEnd)"></path><path d="M220,710L220,714.167C220,718.333,220,726.667,220,735C220,743.333,220,751.667,220,760C220,768.333,220,776.667,220,784.117C220,791.567,220,798.133,220,801.417L220,804.7" id="L-I-J-0" class="edge-thickness-normal edge-pattern-solid flowchart-link LS-I LE-J" style="fill:none;" marker-end="url(#mermaid-1791371594810_flowchart-pointEnd)"></path><path d="M624,634L624,638.167C624,642.333,624,650.667,624,661.167C624,671.667,624,684.333,624,697C624,709.667,624,722.333,624,732.833C624,743.333,624,751.667,624,760C624,768.333,624,776.667,624,784.117C624,791.567,624,798.133,624,801.417L624,804.7" id="L-H-K-0" class="edge-thickness-normal edge-pattern-solid flowchart-link LS-H LE-K" style="fill:none;" marker-end="url(#mermaid-1791371594810_flowchart-pointEnd)"></path><path d="M758.105,634L801.088,638.167C844.07,642.333,930.035,650.667,973.018,661.167C1016,671.667,1016,684.333,1016,697C1016,709.667,1016,722.333,1016,732.833C1016,743.333,1016,751.667,1016,760C1016,768.333,1016,776.667,1016,784.117C1016,791.567,1016,798.133,1016,801.417L1016,804.7" id="L-H-L-0" class="edge-thickness-normal edge-pattern-solid flowchart-link LS-H LE-L" style="fill:none;" marker-end="url(#mermaid-1791371594810_flowchart-pointEnd)"></path></g><g class="edgeLabels"><g class="edgeLabel"><g class="label" transform="translate(0, 0)"><rect rx="0" ry="0" width="0" height="0"></rect><text style=""><tspan xml:space="preserve" dy="1em" x="0" class="row"></tspan></text></g></g><g class="edgeLabel"><g class="label" transform="translate(0, 0)"><rect rx="0" ry="0" width="0" height="0"></rect><text style=""><tspan xml:space="preserve" dy="1em" x="0" class="row"></tspan></text></g></g><g class="edgeLabel"><g class="label" transform="translate(0, 0)"><rect rx="0" ry="0" width="0" height="0"></rect><text style=""><tspan xml:space="preserve" dy="1em" x="0" class="row"></tspan></text></g></g><g class="edgeLabel"><g class="label" transform="translate(0, 0)"><rect rx="0" ry="0" width="0" height="0"></rect><text style=""><tspan xml:space="preserve" dy="1em" x="0" class="row"></tspan></text></g></g><g class="edgeLabel"><g class="label" transform="translate(0, 0)"><rect rx="0" ry="0" width="0" height="0"></rect><text style=""><tspan xml:space="preserve" dy="1em" x="0" class="row"></tspan></text></g></g><g class="edgeLabel"><g class="label" transform="translate(0, 0)"><rect rx="0" ry="0" width="0" height="0"></rect><text style=""><tspan xml:space="preserve" dy="1em" x="0" class="row"></tspan></text></g></g><g class="edgeLabel"><g class="label" transform="translate(0, 0)"><rect rx="0" ry="0" width="0" height="0"></rect><text style=""><tspan xml:space="preserve" dy="1em" x="0" class="row"></tspan></text></g></g><g class="edgeLabel"><g class="label" transform="translate(0, 0)"><rect rx="0" ry="0" width="0" height="0"></rect><text style=""><tspan xml:space="preserve" dy="1em" x="0" class="row"></tspan></text></g></g><g class="edgeLabel"><g class="label" transform="translate(0, 0)"><rect rx="0" ry="0" width="0" height="0"></rect><text style=""><tspan xml:space="preserve" dy="1em" x="0" class="row"></tspan></text></g></g><g class="edgeLabel"><g class="label" transform="translate(0, 0)"><rect rx="0" ry="0" width="0" height="0"></rect><text style=""><tspan xml:space="preserve" dy="1em" x="0" class="row"></tspan></text></g></g><g class="edgeLabel"><g class="label" transform="translate(0, 0)"><rect rx="0" ry="0" width="0" height="0"></rect><text style=""><tspan xml:space="preserve" dy="1em" x="0" class="row"></tspan></text></g></g></g><g class="nodes"><g class="node default default flowchart-label" id="flowchart-J-439" data-node="true" data-id="J" transform="translate(220, 823)"><rect class="basic label-container" style="" rx="0" ry="0" x="-185" y="-13" width="370" height="26"></rect><g class="label" style="" transform="translate(0, -8)"><rect></rect><text style=""><tspan xml:space="preserve" dy="1em" x="0" class="row">Gradio Output: Video (스켈레톤 오버레이 영상)</tspan></text></g></g><g class="node default default flowchart-label" id="flowchart-K-440" data-node="true" data-id="K" transform="translate(624, 823)"><rect class="basic label-container" style="" rx="0" ry="0" x="-169" y="-13" width="338" height="26"></rect><g class="label" style="" transform="translate(0, -8)"><rect></rect><text style=""><tspan xml:space="preserve" dy="1em" x="0" class="row">Gradio Output: Textbox (피드백 진단 결과)</tspan></text></g></g><g class="node default default flowchart-label" id="flowchart-L-441" data-node="true" data-id="L" transform="translate(1016, 823)"><rect class="basic label-container" style="" rx="0" ry="0" x="-173" y="-13" width="346" height="26"></rect><g class="label" style="" transform="translate(0, -8)"><rect></rect><text style=""><tspan xml:space="preserve" dy="1em" x="0" class="row">Gradio Output: Audio (1.5배속 음성 피드백)</tspan></text></g></g><g class="node default default flowchart-label" id="flowchart-C-418" data-node="true" data-id="C" transform="translate(624, 241)"><rect class="basic label-container" style="" rx="0" ry="0" x="-133" y="-13" width="266" height="26"></rect><g class="label" style="" transform="translate(0, -8)"><rect></rect><text style=""><tspan xml:space="preserve" dy="1em" x="0" class="row">analyze_sports_posture 함수 호출</tspan></text></g></g><g class="node default default flowchart-label" id="flowchart-D-419" data-node="true" data-id="D" transform="translate(624, 317)"><rect class="basic label-container" style="" rx="0" ry="0" x="-165" y="-13" width="330" height="26"></rect><g class="label" style="" transform="translate(0, -8)"><rect></rect><text style=""><tspan xml:space="preserve" dy="1em" x="0" class="row">1. OpenCV 영상 구간 자르기 (Crop 0~10초)</tspan></text></g></g><g class="node default default flowchart-label" id="flowchart-E-420" data-node="true" data-id="E" transform="translate(624, 393)"><rect class="basic label-container" style="" rx="0" ry="0" x="-165" y="-13" width="330" height="26"></rect><g class="label" style="" transform="translate(0, -8)"><rect></rect><text style=""><tspan xml:space="preserve" dy="1em" x="0" class="row">2. YOLOv8 사람 (Person) 바운딩 박스 탐지</tspan></text></g></g><g class="node default default flowchart-label" id="flowchart-F-421" data-node="true" data-id="F" transform="translate(624, 469)"><rect class="basic label-container" style="" rx="0" ry="0" x="-217" y="-13" width="434" height="26"></rect><g class="label" style="" transform="translate(0, -8)"><rect></rect><text style=""><tspan xml:space="preserve" dy="1em" x="0" class="row">3. MediaPipe 33개 관절 좌표 추출 &amp; 삼각함수 각도 계산</tspan></text></g></g><g class="node default default flowchart-label" id="flowchart-G-422" data-node="true" data-id="G" transform="translate(624, 545)"><rect class="basic label-container" style="" rx="0" ry="0" x="-189" y="-13" width="378" height="26"></rect><g class="label" style="" transform="translate(0, -8)"><rect></rect><text style=""><tspan xml:space="preserve" dy="1em" x="0" class="row">4. 스켈레톤 선/점 및 실시간 자막 화면 오버레이</tspan></text></g></g><g class="node default default flowchart-label" id="flowchart-H-423" data-node="true" data-id="H" transform="translate(624, 621)"><rect class="basic label-container" style="" rx="0" ry="0" x="-229" y="-13" width="458" height="26"></rect><g class="label" style="" transform="translate(0, -8)"><rect></rect><text style=""><tspan xml:space="preserve" dy="1em" x="0" class="row">5. 조건문 (if-else) 자세 진단 &amp; gTTS 음성 생성 (1.5배속)</tspan></text></g></g><g class="node default default flowchart-label" id="flowchart-I-424" data-node="true" data-id="I" transform="translate(220, 697)"><rect class="basic label-container" style="" rx="0" ry="0" x="-145" y="-13" width="290" height="26"></rect><g class="label" style="" transform="translate(0, -8)"><rect></rect><text style=""><tspan xml:space="preserve" dy="1em" x="0" class="row">6. MoviePy H.264 MP4 웹 영상 인코딩</tspan></text></g></g><g class="node default default flowchart-label" id="flowchart-A-414" data-node="true" data-id="A" transform="translate(624, 38)"><rect class="basic label-container" style="" rx="0" ry="0" x="-209" y="-13" width="418" height="26"></rect><g class="label" style="" transform="translate(0, -8)"><rect></rect><text style=""><tspan xml:space="preserve" dy="1em" x="0" class="row">사용자 입력 (Radio, Textbox, Video, Start/End Time)</tspan></text></g></g><g class="node default default flowchart-label" id="flowchart-B-415" data-node="true" data-id="B" transform="translate(624, 114.5)"><rect class="basic label-container" style="" rx="0" ry="0" x="-163.984375" y="-13.5" width="327.96875" height="27"></rect><g class="label" style="" transform="translate(0, -8.5)"><rect></rect><text style=""><tspan xml:space="preserve" dy="1em" x="0" class="row">gr.Button ('🔍 AI 자세 분석 실행') 클릭</tspan></text></g></g></g></g></g></svg>